<?xml version="1.0" standalone="no"?>
<!DOCTYPE svg PUBLIC "-//W3C//DTD SVG 20010904//EN"
 "http://www.w3.org/TR/2001/REC-SVG-20010904/DTD/svg10.dtd">
<svg version="1.0" xmlns="http://www.w3.org/2000/svg"
 width="700.000000pt" height="700.000000pt" viewBox="0 0 700.000000 700.000000"
 preserveAspectRatio="xMidYMid meet">
<metadata>
Created by potrace 1.11, written by Peter Selinger 2001-2013
</metadata>
<g transform="translate(0.000000,700.000000) scale(0.100000,-0.100000)"
fill="#000000" stroke="none">
<path d="M3235 6994 c-528 -54 -898 -158 -1326 -375 -481 -244 -903 -602
-1235 -1051 -375 -506 -611 -1137 -665 -1777 -23 -270 -3 -662 47 -931 137
-743 535 -1454 1095 -1954 561 -502 1194 -788 1959 -888 126 -17 654 -17 780
0 835 109 1553 461 2114 1036 521 534 849 1196 963 1946 25 161 27 201 27 490
1 321 -3 378 -45 620 -120 697 -465 1357 -974 1865 -555 554 -1254 897 -2038
1001 -116 15 -604 28 -702 18z m730 -272 c373 -58 693 -160 1010 -322 891
-454 1519 -1282 1715 -2260 51 -254 63 -401 57 -705 -5 -288 -19 -414 -72
-649 -268 -1193 -1193 -2142 -2382 -2440 -269 -68 -500 -96 -793 -96 -213 0
-334 9 -528 40 -887 143 -1692 665 -2191 1423 -286 436 -455 907 -516 1437
-23 200 -16 627 13 815 59 375 159 691 322 1010 469 922 1343 1564 2362 1734
207 35 282 40 583 36 230 -2 317 -7 420 -23z"/>
<path d="M3062 3958 c-1156 -1157 -2102 -2106 -2102 -2111 0 -4 945 -7 2100
-7 1671 0 2102 3 2105 12 3 7 4 957 3 2111 l-3 2097 -2103 -2102z"/>
</g>
</svg>
